
<?xml version="1.0" standalone="no"?>
<!DOCTYPE svg PUBLIC "-//W3C//DTD SVG 20010904//EN"
 "http://www.w3.org/TR/2001/REC-SVG-20010904/DTD/svg10.dtd">
<svg version="1.0" xmlns="http://www.w3.org/2000/svg"
 width="512.000000pt" height="512.000000pt" viewBox="0 0 512.000000 512.000000"
 preserveAspectRatio="xMidYMid meet">
<metadata>
Created by potrace 1.11, written by Peter Selinger 2001-2013
</metadata>
<g transform="translate(0.000000,512.000000) scale(0.100000,-0.100000)"
fill="#000000" stroke="none">
<path d="M2066 4415 c-22 -8 -52 -26 -67 -42 -14 -15 -314 -518 -665 -1118
-619 -1057 -638 -1092 -638 -1141 0 -104 -64 -61 1134 -763 595 -349 1101
-641 1124 -649 50 -18 100 -11 147 21 27 18 165 246 676 1117 353 602 645
1110 649 1128 10 53 -4 101 -44 143 -25 26 -335 213 -957 577 -1252 733 -1245
729 -1285 735 -20 4 -52 0 -74 -8z m1128 -766 c583 -342 1067 -628 1075 -635
11 -10 -92 -192 -609 -1076 -343 -584 -631 -1071 -640 -1081 -16 -18 -63 8
-1091 611 -847 497 -1074 634 -1074 650 0 28 1247 2152 1263 2152 8 0 492
-280 1076 -621z"/>
<path d="M2185 3962 c-20 -13 -65 -79 -139 -206 -97 -168 -108 -191 -103 -223
4 -19 14 -44 23 -54 15 -17 272 -172 351 -213 43 -22 85 -20 116 4 22 18 196
302 228 372 14 33 5 90 -19 111 -38 34 -366 219 -395 223 -21 3 -42 -2 -62
-14z m245 -255 c36 -22 67 -41 68 -42 5 -4 -137 -245 -144 -245 -3 0 -59 32
-125 71 l-120 70 27 47 c15 26 47 82 73 124 l45 77 56 -31 c30 -18 84 -49 120
-71z"/>
<path d="M2845 3581 c-31 -14 -46 -35 -154 -218 -104 -176 -113 -205 -89 -258
13 -29 354 -234 404 -242 62 -10 84 14 198 207 58 99 108 191 112 204 3 13 -1
39 -9 58 -12 30 -40 50 -198 142 -181 106 -225 124 -264 107z m185 -236 c63
-37 116 -68 117 -69 2 -2 -135 -237 -142 -244 -4 -5 -234 129 -241 140 -7 10
134 250 144 245 4 -2 59 -35 122 -72z"/>
<path d="M1768 3290 c-22 -16 -169 -254 -222 -357 -42 -83 -20 -111 186 -231
214 -125 226 -130 274 -105 32 15 53 45 145 203 124 211 129 232 77 284 -18
18 -108 76 -200 129 -179 104 -213 114 -260 77z m198 -216 c63 -36 116 -69
118 -73 7 -10 -133 -246 -144 -244 -8 2 -228 130 -238 139 -5 3 138 244 145
244 3 0 57 -30 119 -66z"/>
<path d="M3500 3186 c-24 -14 -56 -63 -187 -290 -69 -119 -73 -144 -35 -194
27 -36 372 -232 407 -232 56 1 76 23 186 211 122 208 130 236 82 288 -38 40
-371 231 -403 231 -14 -1 -36 -7 -50 -14z m182 -222 c62 -37 117 -70 122 -75
8 -7 -116 -233 -134 -244 -4 -3 -62 27 -129 66 l-121 71 25 42 c14 22 46 78
73 123 26 46 48 83 49 83 1 0 52 -30 115 -66z"/>
<path d="M2440 2906 c-16 -9 -64 -81 -133 -198 -121 -208 -129 -238 -79 -287
32 -32 346 -217 384 -226 16 -4 40 0 60 9 28 14 53 48 143 203 115 196 125
226 93 275 -9 14 -99 73 -199 132 -190 110 -218 119 -269 92z m199 -227 l120
-70 -46 -77 c-25 -42 -56 -96 -70 -119 -14 -24 -30 -43 -35 -43 -14 0 -238
130 -238 138 0 12 135 242 142 242 4 0 61 -32 127 -71z"/>
<path d="M1391 2633 c-27 -14 -55 -55 -142 -203 -121 -206 -128 -229 -81 -280
15 -16 104 -75 199 -130 185 -108 218 -118 266 -80 21 17 169 256 221 357 43
84 21 110 -195 237 -100 59 -194 109 -208 112 -15 3 -41 -3 -60 -13z m189
-228 c63 -37 117 -69 118 -70 5 -4 -137 -245 -144 -245 -8 0 -234 132 -239
140 -5 8 136 250 144 246 3 -2 58 -34 121 -71z"/>
<path d="M3096 2508 c-29 -26 -221 -350 -231 -390 -4 -16 0 -39 10 -62 14 -29
44 -51 191 -136 220 -128 220 -128 270 -104 34 17 52 41 147 203 68 118 107
195 107 213 0 60 -22 79 -213 191 -202 117 -233 127 -281 85z m201 -214 c62
-36 115 -69 118 -74 4 -7 -114 -223 -133 -242 -4 -3 -62 26 -129 66 l-122 72
71 122 c39 67 73 122 76 122 3 0 56 -30 119 -66z"/>
<path d="M2050 2238 c-22 -16 -65 -79 -136 -200 -112 -190 -124 -231 -86 -277
9 -12 98 -68 197 -126 198 -115 231 -125 279 -82 14 12 71 101 127 197 117
199 125 229 73 280 -39 38 -373 230 -400 230 -12 0 -36 -10 -54 -22z m310
-300 c0 -19 -135 -239 -145 -236 -23 6 -235 134 -235 141 0 5 32 62 70 127
l70 119 120 -71 c66 -38 120 -75 120 -80z"/>
<path d="M2735 1861 c-33 -14 -58 -49 -147 -201 -118 -200 -121 -207 -114
-245 9 -44 28 -59 223 -174 190 -112 227 -122 274 -78 13 12 70 101 127 198
112 193 122 226 80 273 -29 31 -361 226 -397 231 -14 3 -35 1 -46 -4z m178
-237 c62 -36 114 -67 116 -69 6 -6 -133 -244 -143 -245 -4 0 -62 32 -128 71
-115 68 -119 71 -105 92 7 12 40 66 71 120 31 53 62 97 67 97 6 0 61 -30 122
-66z"/>
</g>
</svg>